PathFileType	4	(X/Y/Z)	c:/Users/goper/Files/vsCode/490R/osim_files/A04/A04_Slow_04.trc
DataRate	CameraRate	NumFrames	NumMarkers	Units                	OrigDataRate	OrigDataStartFrame	OrigNumFrames
120.00	120.00	5	36	mm	120.0	142	1133
                Frame#	Time	LPSIS			LASIS			LTH1			LTH2			LTH3			LTH4			LLFE			LMFE			LSH1			LSH2			LSH3			LSH4			LLMAL			LMMAL			LCAL			LMTP5			LTOE			LMTP1			RPSIS			RASIS			RTH1			RTH2			RTH3			RTH4			RLFE			RMFE			RSH1			RSH2			RSH3			RSH4			RLMAL			RMMAL			RCAL			RMTP1			RTOE			RMTP5		
		X1	Y1	Z1	X2	Y2	Z2	X3	Y3	Z3	X4	Y4	Z4	X5	Y5	Z5	X6	Y6	Z6	X7	Y7	Z7	X8	Y8	Z8	X9	Y9	Z9	X10	Y10	Z10	X11	Y11	Z11	X12	Y12	Z12	X13	Y13	Z13	X14	Y14	Z14	X15	Y15	Z15	X16	Y16	Z16	X17	Y17	Z17	X18	Y18	Z18	X19	Y19	Z19	X20	Y20	Z20	X21	Y21	Z21	X22	Y22	Z22	X23	Y23	Z23	X24	Y24	Z24	X25	Y25	Z25	X26	Y26	Z26	X27	Y27	Z27	X28	Y28	Z28	X29	Y29	Z29	X30	Y30	Z30	X31	Y31	Z31	X32	Y32	Z32	X33	Y33	Z33	X34	Y34	Z34	X35	Y35	Z35	X36	Y36	Z36

142	1.17500	2585.06445	1068.95093	411.33365	0.00000	0.00000	0.00000	0.00000	0.00000	0.00000	0.00000	0.00000	0.00000	2588.64209	1057.22131	303.90369	0.00000	0.00000	0.00000	2448.14526	534.16388	494.71399	0.00000	0.00000	0.00000	2480.64062	431.16089	489.13596	2473.65479	389.26727	486.02478	0.00000	0.00000	0.00000	0.00000	0.00000	0.00000	0.00000	0.00000	0.00000	2464.01196	117.97501	349.86655	2550.57153	71.59966	368.99377	2353.43335	66.82195	476.44040	0.00000	0.00000	0.00000	2317.12891	73.85943	378.73688	0.00000	0.00000	0.00000	0.00000	0.00000	0.00000	2463.25977	657.60547	506.31226	2466.61084	702.77124	508.57773	0.00000	0.00000	0.00000	0.00000	0.00000	0.00000	0.00000	0.00000	0.00000	2416.95947	543.00256	354.00476	2298.42920	381.16702	160.04089	2321.26758	338.34256	164.82224	2351.68970	402.62558	171.80782	2364.82056	356.72919	178.70453	0.00000	0.00000	0.00000	0.00000	0.00000	0.00000	2502.61841	145.31953	249.71616	0.00000	0.00000	0.00000	0.00000	0.00000	0.00000	2493.67847	111.96469	429.20096
143	1.18333	2579.47925	1069.23596	410.99213	0.00000	0.00000	0.00000	0.00000	0.00000	0.00000	0.00000	0.00000	0.00000	2583.00464	1057.69275	303.53052	0.00000	0.00000	0.00000	2444.98901	534.02808	494.20728	0.00000	0.00000	0.00000	2478.40063	431.45074	488.90671	2471.55566	389.35422	485.82364	0.00000	0.00000	0.00000	0.00000	0.00000	0.00000	0.00000	0.00000	0.00000	2463.96191	117.94194	349.80283	2550.57788	71.65993	368.99048	2353.41675	66.82266	476.40530	2296.64746	84.26470	419.26700	0.00000	0.00000	0.00000	0.00000	0.00000	0.00000	2394.23950	166.69960	166.48680	2459.51538	657.77216	506.05530	2462.57812	702.94470	508.30136	0.00000	0.00000	0.00000	0.00000	0.00000	0.00000	0.00000	0.00000	0.00000	2413.95581	542.87830	353.74030	2281.74292	381.20663	159.56915	2303.32690	337.86203	163.89522	2336.05640	400.76160	170.94809	2347.47559	354.36908	177.82394	0.00000	0.00000	0.00000	0.00000	0.00000	0.00000	2477.34839	138.13770	248.11484	0.00000	0.00000	0.00000	0.00000	0.00000	0.00000	2493.63403	111.99847	429.13275
144	1.19167	2573.87085	1069.51978	410.64334	0.00000	0.00000	0.00000	0.00000	0.00000	0.00000	0.00000	0.00000	0.00000	2577.37402	1058.12952	303.13992	0.00000	0.00000	0.00000	2441.94678	534.02429	493.91745	0.00000	0.00000	0.00000	2476.02856	431.70532	488.64297	2469.54272	389.71167	485.58371	0.00000	0.00000	0.00000	0.00000	0.00000	0.00000	0.00000	0.00000	0.00000	2463.94751	117.91675	349.77090	2550.57544	71.68024	368.94681	2353.44263	66.81580	476.40848	2296.42310	83.86823	419.00317	0.00000	0.00000	0.00000	0.00000	0.00000	0.00000	2370.08960	162.80493	165.18088	2455.73315	657.92139	505.81088	2458.52271	703.10065	508.09378	0.00000	0.00000	0.00000	0.00000	0.00000	0.00000	0.00000	0.00000	0.00000	2410.89502	542.66248	353.49835	2265.28369	381.26871	159.06558	2285.59204	337.47623	162.91907	2320.51733	398.85388	170.07004	2330.30127	352.08630	176.84380	0.00000	0.00000	0.00000	0.00000	0.00000	0.00000	2452.03149	131.27211	246.43666	0.00000	0.00000	0.00000	0.00000	0.00000	0.00000	2493.62305	112.03386	429.10477
145	1.20000	2568.20996	1069.76526	410.22430	0.00000	0.00000	0.00000	0.00000	0.00000	0.00000	0.00000	0.00000	0.00000	2571.66675	1058.50647	302.71246	0.00000	0.00000	0.00000	2438.91309	534.10901	493.67480	0.00000	0.00000	0.00000	2473.63184	432.02789	488.46628	2467.43433	389.96088	485.40356	0.00000	0.00000	0.00000	0.00000	0.00000	0.00000	0.00000	0.00000	0.00000	2463.88403	117.93844	349.73318	2550.54150	71.73090	368.92615	2353.39966	66.79350	476.37170	2296.39429	83.78857	418.97620	0.00000	0.00000	0.00000	0.00000	0.00000	0.00000	2346.06665	159.25377	163.82933	2451.85498	658.08698	505.59766	2454.38745	703.29651	507.84729	0.00000	0.00000	0.00000	0.00000	0.00000	0.00000	0.00000	0.00000	0.00000	2407.79639	542.50720	353.25793	2249.05347	381.41833	158.53223	2267.99512	337.18637	161.96393	2305.13403	397.02658	169.13330	2313.23853	349.91641	175.85042	0.00000	0.00000	0.00000	0.00000	0.00000	0.00000	2426.67456	124.77187	244.71849	0.00000	0.00000	0.00000	0.00000	0.00000	0.00000	2493.54224	112.08953	429.06088
146	1.20833	2562.48315	1069.98096	409.79980	0.00000	0.00000	0.00000	0.00000	0.00000	0.00000	0.00000	0.00000	0.00000	2565.94238	1058.86584	302.29443	0.00000	0.00000	0.00000	2435.82666	534.18036	493.39432	0.00000	0.00000	0.00000	2471.19727	432.31799	488.28781	2465.31030	390.22992	485.23303	0.00000	0.00000	0.00000	0.00000	0.00000	0.00000	0.00000	0.00000	0.00000	2463.77051	117.99099	349.68408	2550.47339	71.87711	368.91785	2353.33569	66.81617	476.35236	2296.30884	83.71812	418.93506	0.00000	0.00000	0.00000	0.00000	0.00000	0.00000	2322.11597	156.01329	162.49693	2447.87476	658.22900	505.36185	2450.23511	703.49524	507.63171	0.00000	0.00000	0.00000	0.00000	0.00000	0.00000	0.00000	0.00000	0.00000	0.00000	0.00000	0.00000	2233.08862	381.66818	157.94720	0.00000	0.00000	0.00000	0.00000	0.00000	0.00000	2296.34229	347.86871	174.78206	0.00000	0.00000	0.00000	2293.42554	155.80844	294.62515	2401.37915	118.77570	242.95601	0.00000	0.00000	0.00000	2151.36206	95.80756	217.66524	0.00000	0.00000	0.00000
